# xmcd
#
# Track frame offsets: 
#        150
#        17013
#        33891
#        50746
#        65200
#
# Disc length: 1063 seconds
#
# Revision: 0
# Processed by: cddbd v1.5.2PL0 Copyright (c) Steve Scherf et al.
# Submitted via: ExactAudioCopy v0.99pb5
#
DISCID=40042505
DTITLE=Run Away [CDM) - Nivea
DYEAR=2001
DGENRE=R&B
TTITLE0=Run Away (feat. Pusha T)
TTITLE1=Run Away (without Rap)
TTITLE2=Run Away (Instrumental)
TTITLE3=Run Away (Album Version)
TTITLE4=Don't Mess With The Radio (Irv Gotti Remix) (feat. Caddilac Ta
TTITLE4=h)
EXTD=
EXTT0=
EXTT1=
EXTT2=
EXTT3=
EXTT4=
PLAYORDER=
